HIERARCHY
ROOT Hips
{
	OFFSET 0.000000 71.427986 0.000000
	CHANNELS 6 Xposition Yposition Zposition Xrotation Yrotation Zrotation
	JOINT Pelvis
	{
		OFFSET 0.000000 0.000000 0.000000
		CHANNELS 3 Xrotation Yrotation Zrotation
		JOINT LeftUpLeg
		{
			OFFSET 6.797100 -2.508499 -1.318700
			CHANNELS 3 Xrotation Yrotation Zrotation
			JOINT LeftLeg
			{
				OFFSET 0.069008 -29.241863 0.690200
				CHANNELS 3 Xrotation Yrotation Zrotation
				JOINT LeftFoot
				{
					OFFSET -0.069008 -29.568123 -0.266800
					CHANNELS 3 Xrotation Yrotation Zrotation
					JOINT LeftToeBase
					{
						OFFSET 3.145500 -8.631000 16.059900
						CHANNELS 3 Xrotation Yrotation Zrotation
						End Site
						{
							OFFSET 0.000000 18.501587 0.000000
						}
					}
				}
			}
			JOINT Left_ShortSleeve
			{
				OFFSET 0.265923 -10.480953 1.153800
				CHANNELS 3 Xrotation Yrotation Zrotation
				End Site
				{
					OFFSET 1.725763 19.823879 0.000000
				}
			}
		}
		JOINT RightUpLeg
		{
			OFFSET -6.797100 -2.508499 -1.318700
			CHANNELS 3 Xrotation Yrotation Zrotation
			JOINT RightLeg
			{
				OFFSET -0.082453 -29.241932 0.688000
				CHANNELS 3 Xrotation Yrotation Zrotation
				JOINT RightFoot
				{
					OFFSET 0.082453 -29.568058 -0.264600
					CHANNELS 3 Xrotation Yrotation Zrotation
					JOINT RightToeBase
					{
						OFFSET -3.115300 -8.682800 16.113400
						CHANNELS 3 Xrotation Yrotation Zrotation
						End Site
						{
							OFFSET 0.000000 18.567114 0.000000
						}
					}
				}
			}
			JOINT Right_ShortSleeve
			{
				OFFSET -0.265923 -10.480953 1.153800
				CHANNELS 3 Xrotation Yrotation Zrotation
				End Site
				{
					OFFSET -1.725766 19.823910 0.000000
				}
			}
		}
	}
	JOINT Spine
	{
		OFFSET 0.000000 13.368103 0.470500
		CHANNELS 3 Xrotation Yrotation Zrotation
		JOINT Spine1
		{
			OFFSET 0.147000 13.837402 0.538800
			CHANNELS 3 Xrotation Yrotation Zrotation
			JOINT Spine2
			{
				OFFSET 0.168000 16.242897 -1.435500
				CHANNELS 3 Xrotation Yrotation Zrotation
				JOINT Neck
				{
					OFFSET 0.217200 18.631500 -1.679100
					CHANNELS 3 Xrotation Yrotation Zrotation
					JOINT Head
					{
						OFFSET 0.000000 6.599396 1.385900
						CHANNELS 3 Xrotation Yrotation Zrotation
						JOINT Hat
						{
							OFFSET -0.532200 27.220596 -10.096100
							CHANNELS 3 Xrotation Yrotation Zrotation
							End Site
							{
								OFFSET 0.000000 22.029861 0.000000
							}
						}
						JOINT HairD
						{
							OFFSET -10.777400 17.437393 -1.325900
							CHANNELS 3 Xrotation Yrotation Zrotation
							JOINT HairD1
							{
								OFFSET -3.290299 -11.051193 1.062200
								CHANNELS 3 Xrotation Yrotation Zrotation
								End Site
								{
									OFFSET 0.000000 11.579437 0.000000
								}
							}
						}
						JOINT HairB
						{
							OFFSET -10.777400 17.437393 1.467900
							CHANNELS 3 Xrotation Yrotation Zrotation
							JOINT HairB1
							{
								OFFSET -1.561200 -12.956299 3.590200
								CHANNELS 3 Xrotation Yrotation Zrotation
								End Site
								{
									OFFSET 0.000000 13.534866 0.000000
								}
							}
						}
						JOINT HairA
						{
							OFFSET 9.713100 17.437393 1.467900
							CHANNELS 3 Xrotation Yrotation Zrotation
							JOINT HairA1
							{
								OFFSET 1.561200 -12.956299 3.590200
								CHANNELS 3 Xrotation Yrotation Zrotation
								End Site
								{
									OFFSET 0.000000 13.534866 0.000000
								}
							}
						}
						JOINT HairC
						{
							OFFSET 9.713100 17.437393 -1.325900
							CHANNELS 3 Xrotation Yrotation Zrotation
							JOINT HairC1
							{
								OFFSET 3.290300 -11.051193 1.062200
								CHANNELS 3 Xrotation Yrotation Zrotation
								End Site
								{
									OFFSET 0.000000 11.579437 0.000000
								}
							}
						}
					}
				}
				JOINT LeftShoulder
				{
					OFFSET 5.101800 15.108002 -2.763700
					CHANNELS 3 Xrotation Yrotation Zrotation
					JOINT LeftArm
					{
						OFFSET 9.825497 2.506317 -1.597400
						CHANNELS 3 Xrotation Yrotation Zrotation
						JOINT LeftForeArm
						{
							OFFSET 21.966244 0.000000 0.000000
							CHANNELS 3 Xrotation Yrotation Zrotation
							JOINT LeftHand
							{
								OFFSET 33.879036 0.000000 0.000000
								CHANNELS 3 Xrotation Yrotation Zrotation
								JOINT LeftHandThumb1
								{
									OFFSET 6.715286 -2.359680 3.363841
									CHANNELS 3 Xrotation Yrotation Zrotation
									JOINT LeftHandThumb2
									{
										OFFSET 2.507072 -1.447464 1.447461
										CHANNELS 3 Xrotation Yrotation Zrotation
										JOINT LeftHandThumb3
										{
											OFFSET 2.898338 -1.673355 1.673357
											CHANNELS 3 Xrotation Yrotation Zrotation
											End Site
											{
												OFFSET -0.295959 3.727692 -0.131651
											}
										}
									}
								}
								JOINT LeftHandIndex1
								{
									OFFSET 14.190811 -0.254547 3.840278
									CHANNELS 3 Xrotation Yrotation Zrotation
									JOINT LeftHandIndex2
									{
										OFFSET 3.551727 0.000000 -0.000000
										CHANNELS 3 Xrotation Yrotation Zrotation
										JOINT LeftHandIndex3
										{
											OFFSET 2.894196 0.000000 0.000000
											CHANNELS 3 Xrotation Yrotation Zrotation
											End Site
											{
												OFFSET -1.000603 2.690872 0.366626
											}
										}
									}
								}
								JOINT LeftHandMiddle1
								{
									OFFSET 13.776489 0.000000 0.000000
									CHANNELS 3 Xrotation Yrotation Zrotation
									JOINT LeftHandMiddle2
									{
										OFFSET 3.438232 0.000000 0.000000
										CHANNELS 3 Xrotation Yrotation Zrotation
										JOINT LeftHandMiddle3
										{
											OFFSET 3.691551 0.000000 0.000000
											CHANNELS 3 Xrotation Yrotation Zrotation
											End Site
											{
												OFFSET -1.082298 3.499527 0.457670
											}
										}
									}
								}
								JOINT LeftHandRing1
								{
									OFFSET 13.966164 -0.268127 -3.067488
									CHANNELS 3 Xrotation Yrotation Zrotation
									JOINT LeftHandRing2
									{
										OFFSET 3.162567 0.000000 0.000000
										CHANNELS 3 Xrotation Yrotation Zrotation
										JOINT LeftHandRing3
										{
											OFFSET 3.324348 0.000000 0.000000
											CHANNELS 3 Xrotation Yrotation Zrotation
											End Site
											{
												OFFSET -0.861900 3.184998 0.405154
											}
										}
									}
								}
								JOINT LeftHandPinky1
								{
									OFFSET 13.131393 -0.168503 -5.746925
									CHANNELS 3 Xrotation Yrotation Zrotation
									JOINT LeftHandPinky2
									{
										OFFSET 2.849182 0.000000 0.000000
										CHANNELS 3 Xrotation Yrotation Zrotation
										JOINT LeftHandPinky3
										{
											OFFSET 2.805038 0.000000 0.000000
											CHANNELS 3 Xrotation Yrotation Zrotation
											End Site
											{
												OFFSET -0.882500 2.642609 0.325652
											}
										}
									}
								}
							}
							JOINT Left_Sleeve
							{
								OFFSET 6.592125 -0.646545 0.805568
								CHANNELS 3 Xrotation Yrotation Zrotation
								End Site
								{
									OFFSET -0.000179 20.275787 -0.000000
								}
							}
						}
					}
				}
				JOINT RightShoulder
				{
					OFFSET -5.731700 15.108002 -2.763700
					CHANNELS 3 Xrotation Yrotation Zrotation
					JOINT RightArm
					{
						OFFSET -9.825497 2.506317 -1.597400
						CHANNELS 3 Xrotation Yrotation Zrotation
						JOINT RightForeArm
						{
							OFFSET -21.966242 0.000000 0.000000
							CHANNELS 3 Xrotation Yrotation Zrotation
							JOINT RightHand
							{
								OFFSET -33.879032 0.000000 0.000000
								CHANNELS 3 Xrotation Yrotation Zrotation
								JOINT RightHandThumb1
								{
									OFFSET -6.715286 -2.359680 3.363841
									CHANNELS 3 Xrotation Yrotation Zrotation
									JOINT RightHandThumb2
									{
										OFFSET -2.507072 -1.447464 1.447461
										CHANNELS 3 Xrotation Yrotation Zrotation
										JOINT RightHandThumb3
										{
											OFFSET -2.898338 -1.673355 1.673357
											CHANNELS 3 Xrotation Yrotation Zrotation
											End Site
											{
												OFFSET 0.295959 3.727692 -0.131651
											}
										}
									}
								}
								JOINT RightHandIndex1
								{
									OFFSET -14.190811 -0.254547 3.840278
									CHANNELS 3 Xrotation Yrotation Zrotation
									JOINT RightHandIndex2
									{
										OFFSET -3.551727 0.000000 -0.000000
										CHANNELS 3 Xrotation Yrotation Zrotation
										JOINT RightHandIndex3
										{
											OFFSET -2.894196 0.000000 0.000000
											CHANNELS 3 Xrotation Yrotation Zrotation
											End Site
											{
												OFFSET 1.000603 2.690872 0.366626
											}
										}
									}
								}
								JOINT RightHandMiddle1
								{
									OFFSET -13.776489 0.000000 0.000000
									CHANNELS 3 Xrotation Yrotation Zrotation
									JOINT RightHandMiddle2
									{
										OFFSET -3.438232 0.000000 0.000000
										CHANNELS 3 Xrotation Yrotation Zrotation
										JOINT RightHandMiddle3
										{
											OFFSET -3.691551 0.000000 0.000000
											CHANNELS 3 Xrotation Yrotation Zrotation
											End Site
											{
												OFFSET 1.082298 3.499527 0.457670
											}
										}
									}
								}
								JOINT RightHandRing1
								{
									OFFSET -13.966164 -0.268127 -3.067488
									CHANNELS 3 Xrotation Yrotation Zrotation
									JOINT RightHandRing2
									{
										OFFSET -3.162567 0.000000 0.000000
										CHANNELS 3 Xrotation Yrotation Zrotation
										JOINT RightHandRing3
										{
											OFFSET -3.324348 0.000000 0.000000
											CHANNELS 3 Xrotation Yrotation Zrotation
											End Site
											{
												OFFSET 0.861900 3.184998 0.405154
											}
										}
									}
								}
								JOINT RightHandPinky1
								{
									OFFSET -13.131393 -0.168503 -5.746925
									CHANNELS 3 Xrotation Yrotation Zrotation
									JOINT RightHandPinky2
									{
										OFFSET -2.849182 0.000000 0.000000
										CHANNELS 3 Xrotation Yrotation Zrotation
										JOINT RightHandPinky3
										{
											OFFSET -2.805038 0.000000 0.000000
											CHANNELS 3 Xrotation Yrotation Zrotation
											End Site
											{
												OFFSET 0.882500 2.642609 0.325652
											}
										}
									}
								}
							}
							JOINT Right_Sleeve
							{
								OFFSET -6.592125 -0.646545 0.805568
								CHANNELS 3 Xrotation Yrotation Zrotation
								End Site
								{
									OFFSET 0.000179 20.275787 -0.000000
								}
							}
						}
					}
				}
				JOINT Bind_Right_JacketString
				{
					OFFSET -3.534800 11.969597 7.200700
					CHANNELS 3 Xrotation Yrotation Zrotation
					JOINT Bind_Right_JacketString1
					{
						OFFSET -0.319900 -6.102600 2.794100
						CHANNELS 3 Xrotation Yrotation Zrotation
						End Site
						{
							OFFSET 0.000000 6.719452 0.000000
						}
					}
				}
				JOINT Bind_Left_JacketString
				{
					OFFSET 2.904800 11.969597 7.200700
					CHANNELS 3 Xrotation Yrotation Zrotation
					JOINT Bind_Left_JacketString1
					{
						OFFSET 0.364800 -5.904503 3.186800
						CHANNELS 3 Xrotation Yrotation Zrotation
						End Site
						{
							OFFSET 0.000000 6.719513 0.000000
						}
					}
				}
				JOINT HairE
				{
					OFFSET 5.915200 17.612701 -11.592200
					CHANNELS 3 Xrotation Yrotation Zrotation
					JOINT HairE1
					{
						OFFSET 0.289200 -7.171898 -1.284500
						CHANNELS 3 Xrotation Yrotation Zrotation
						End Site
						{
							OFFSET 0.000000 7.291756 0.000000
						}
					}
				}
				JOINT HairF
				{
					OFFSET -0.864800 17.612701 -11.592200
					CHANNELS 3 Xrotation Yrotation Zrotation
					JOINT HairF1
					{
						OFFSET 0.000000 -14.087097 -2.127501
						CHANNELS 3 Xrotation Yrotation Zrotation
						End Site
						{
							OFFSET 0.000000 14.246841 0.000000
						}
					}
				}
				JOINT HairG
				{
					OFFSET -8.087700 17.612701 -11.592200
					CHANNELS 3 Xrotation Yrotation Zrotation
					JOINT HairG1
					{
						OFFSET -0.293600 -6.081398 -0.910100
						CHANNELS 3 Xrotation Yrotation Zrotation
						End Site
						{
							OFFSET 0.000000 6.156120 0.000000
						}
					}
				}
			}
		}
	}
	JOINT Pouch
	{
		OFFSET 0.000000 4.394501 10.847300
		CHANNELS 3 Xrotation Yrotation Zrotation
		End Site
		{
			OFFSET 0.000000 21.880577 0.000000
		}
	}
	JOINT Bag
	{
		OFFSET -13.229000 4.813004 -0.593300
		CHANNELS 3 Xrotation Yrotation Zrotation
		End Site
		{
			OFFSET 0.000000 21.880577 0.000000
		}
	}
	JOINT OccupyGuyFacialAnim_Joint
	{
		OFFSET 1.000000 -70.206398 -1.655000
		CHANNELS 3 Xrotation Yrotation Zrotation
		End Site
		{
			OFFSET 0.000000 21.880577 0.000000
		}
	}
}
MOTION
Frames: 4
Frame Time: 0.016667
-0.549287 65.668068 3.544771 -13.180050 -1.762769 -5.160526 -0.000000 0.000000 -0.000000 -28.755103 21.036843 11.443532 42.883961 -9.220816 10.092964 -4.289003 -7.835296 -1.009627 0.000000 0.000000 0.000000 -0.000000 -0.000001 -0.000001 -19.962543 -35.260783 -0.570388 39.688249 9.368220 -10.339169 -6.011983 6.703804 -5.009455 -0.000000 0.000002 -0.000000 -0.000000 0.000001 0.000001 5.922580 -0.714582 3.127238 9.021539 -0.429998 -0.455594 9.028561 -0.103889 -0.473628 15.499586 0.680418 0.863641 -2.573558 0.818023 5.726066 -0.000003 0.000000 -0.000000 -0.000003 0.000000 -0.000000 -0.000003 0.000000 -0.000000 -0.000003 0.000000 -0.000000 -0.000001 0.000000 -0.000001 -0.000003 0.000000 -0.000000 -0.000001 0.000000 -0.000001 -0.000003 0.000000 -0.000000 -0.000003 0.000000 -0.000000 0.681782 3.908470 -11.397479 74.323557 -65.285482 4.646523 -0.000014 -18.010068 -0.000018 -25.659117 7.272754 -3.768740 21.734251 5.841507 -2.497392 -16.162756 18.936392 19.036140 -0.000001 0.000002 0.000000 0.152616 1.444573 -12.061575 0.086634 1.091007 -9.079584 0.000001 0.000001 -0.000000 0.152213 1.442685 -12.045593 0.086937 1.092907 -9.095572 0.000001 0.000001 -0.000001 0.152617 1.444564 -12.061573 0.086637 1.091016 -9.079567 -0.000001 0.000001 0.000000 0.985186 5.412802 -11.600973 0.078383 -2.964038 -9.583903 -0.000001 -0.000000 -0.000002 -0.000000 -0.000000 -0.000001 1.412992 0.332769 10.813719 8.850508 40.127194 57.894049 -0.000014 26.003456 -0.000013 37.130356 -9.963352 12.845716 -0.389755 -6.638713 -15.665602 8.907269 -22.771349 0.157759 0.000002 0.000002 -0.000000 0.174547 -1.551260 12.839276 0.140305 -1.392639 11.506926 0.000001 0.000000 -0.000003 0.174541 -1.551250 12.839281 0.140315 -1.392648 11.506920 -0.000000 -0.000001 0.000001 0.174542 -1.551239 12.839272 0.140300 -1.392665 11.506926 -0.000000 -0.000000 -0.000000 0.174550 -1.551238 12.839274 0.140300 -1.392662 11.506929 -0.000001 0.000001 -0.000001 -0.000000 0.000001 -0.000001 -0.000000 0.000001 -0.000000 -0.000000 0.000000 0.000000 -0.000000 0.000001 -0.000000 -0.000000 0.000001 -0.000000 -0.000000 0.000001 -0.000000 -0.000000 0.000000 0.000000 -0.000000 0.000001 -0.000000 -0.000000 0.000001 -0.000000 -0.000000 0.000001 -0.000000 -0.000000 0.000000 0.000000 -0.000000 0.000000 -0.000000 -0.000000 0.000000 -0.000000 -0.000000 0.000000 -0.000000 
-0.536697 65.669121 3.544949 -13.183842 -1.800874 -5.143809 0.000000 0.000000 -0.000000 -28.745510 21.098086 11.438004 42.875184 -9.221354 10.093227 -4.290514 -7.847217 -0.995584 -0.000000 -0.000000 0.000000 0.000001 0.000000 -0.000001 -19.975360 -35.159280 -0.570637 39.694717 9.367396 -10.340001 -6.006973 6.656830 -4.983131 0.000000 -0.000000 0.000000 -0.000002 -0.000000 -0.000001 5.921575 -0.710250 3.120698 9.018472 -0.421017 -0.454876 9.025359 -0.094396 -0.473342 15.500814 0.683414 0.851795 -2.570582 0.837382 5.719964 0.000002 0.000000 0.000000 0.000002 0.000000 0.000000 0.000002 0.000000 0.000000 0.000002 0.000000 0.000000 0.000002 0.000000 -0.000000 0.000002 0.000000 0.000000 0.000002 0.000000 -0.000000 0.000002 0.000000 0.000000 0.000002 0.000000 0.000000 0.682937 3.924066 -11.425492 74.279728 -65.233880 4.636007 -0.000008 -18.066241 -0.000015 -25.471754 7.330751 -3.951220 21.734246 5.841507 -2.497392 -16.162758 18.936390 19.036142 0.000000 0.000002 0.000002 0.152615 1.444574 -12.061575 0.086635 1.091006 -9.079580 0.000001 0.000002 -0.000003 0.152212 1.442685 -12.045591 0.086937 1.092908 -9.095568 0.000002 0.000001 0.000001 0.152616 1.444565 -12.061575 0.086630 1.091017 -9.079565 -0.000001 0.000001 -0.000001 0.985183 5.412801 -11.600974 0.078384 -2.964039 -9.583904 -0.000001 -0.000001 0.000003 0.000000 -0.000000 0.000000 1.413248 0.336094 10.799355 8.846324 40.120483 57.885034 0.000003 26.006510 -0.000023 37.193044 -9.934872 12.879318 -0.389754 -6.638715 -15.665601 8.907269 -22.771347 0.157761 -0.000002 -0.000001 0.000002 0.174546 -1.551260 12.839276 0.140305 -1.392641 11.506928 0.000001 0.000000 -0.000001 0.174541 -1.551251 12.839279 0.140315 -1.392649 11.506920 -0.000001 -0.000000 0.000001 0.174543 -1.551239 12.839268 0.140302 -1.392665 11.506926 0.000001 -0.000001 0.000001 0.174550 -1.551238 12.839276 0.140303 -1.392661 11.506927 0.000001 0.000000 -0.000001 0.000001 -0.000001 0.000001 0.000001 0.000000 -0.000000 0.000001 -0.000000 0.000000 0.000001 0.000000 -0.000000 0.000001 0.000000 -0.000000 0.000001 0.000000 -0.000000 0.000001 -0.000000 0.000000 0.000001 0.000000 -0.000000 0.000001 0.000000 -0.000000 0.000001 0.000000 -0.000000 0.000001 -0.000000 0.000000 0.000000 0.000000 -0.000000 0.000000 0.000000 -0.000000 0.000000 0.000000 -0.000000 
-0.524906 65.669853 3.545366 -13.187897 -1.836312 -5.125681 0.000001 -0.000000 0.000000 -28.734766 21.156077 11.430018 42.867070 -9.221925 10.093397 -4.292211 -7.857766 -0.982301 0.000000 -0.000000 -0.000000 0.000001 -0.000001 0.000000 -19.991071 -35.062704 -0.575229 39.704627 9.365161 -10.342037 -6.003841 6.619435 -4.957014 -0.000000 0.000000 0.000000 0.000001 0.000000 -0.000002 5.920685 -0.706254 3.111644 9.015933 -0.413233 -0.454230 9.022704 -0.086283 -0.473039 15.501761 0.686837 0.839503 -2.569943 0.854905 5.720952 0.000000 0.000000 -0.000000 0.000000 0.000000 -0.000000 0.000000 0.000000 -0.000000 0.000000 0.000000 -0.000000 0.000000 0.000000 -0.000000 0.000000 0.000000 -0.000000 0.000000 0.000000 -0.000000 0.000000 0.000000 -0.000000 0.000000 0.000000 -0.000000 0.684058 3.939020 -11.452422 74.202451 -65.177804 4.592511 0.000010 -18.130775 -0.000002 -25.270457 7.391019 -4.135372 21.734248 5.841506 -2.497392 -16.162756 18.936389 19.036144 0.000001 -0.000000 -0.000001 0.152618 1.444574 -12.061574 0.086634 1.091006 -9.079580 0.000000 -0.000000 -0.000000 0.152214 1.442685 -12.045590 0.086938 1.092907 -9.095566 -0.000000 -0.000001 0.000001 0.152621 1.444564 -12.061573 0.086636 1.091018 -9.079568 -0.000001 -0.000001 -0.000001 0.985185 5.412802 -11.600975 0.078383 -2.964038 -9.583903 -0.000001 -0.000003 0.000003 -0.000000 -0.000000 0.000000 1.414566 0.343948 10.791922 8.851281 40.106652 57.862740 -0.000005 26.024365 0.000023 37.255786 -9.909320 12.917780 -0.389756 -6.638713 -15.665602 8.907272 -22.771347 0.157759 0.000000 -0.000002 0.000002 0.174546 -1.551260 12.839279 0.140306 -1.392640 11.506927 -0.000000 0.000000 -0.000001 0.174540 -1.551250 12.839281 0.140317 -1.392649 11.506919 0.000001 -0.000000 -0.000001 0.174542 -1.551239 12.839272 0.140301 -1.392664 11.506925 -0.000000 0.000000 -0.000003 0.174550 -1.551238 12.839278 0.140302 -1.392661 11.506929 -0.000002 0.000001 -0.000001 0.000003 -0.000000 -0.000001 0.000001 -0.000000 0.000000 0.000001 0.000000 0.000000 0.000001 -0.000000 0.000000 0.000001 -0.000000 0.000000 0.000001 -0.000000 0.000000 0.000001 0.000000 0.000000 0.000001 -0.000000 0.000000 0.000001 -0.000000 0.000000 0.000001 -0.000000 0.000000 0.000001 0.000000 0.000000 0.000001 -0.000000 0.000000 0.000001 -0.000000 0.000000 0.000001 -0.000000 0.000000 
-0.514436 65.670044 3.546110 -13.192049 -1.867917 -5.106389 0.000000 0.000000 -0.000000 -28.723671 21.208832 11.419823 42.860967 -9.222439 10.093562 -4.294542 -7.866531 -0.970626 0.000000 0.000000 0.000000 -0.000001 0.000000 -0.000000 -20.009953 -34.974359 -0.584838 39.718834 9.361073 -10.345422 -6.003323 6.595042 -4.931872 0.000000 -0.000000 0.000000 -0.000002 -0.000003 -0.000002 5.919839 -0.702682 3.099893 9.013793 -0.406900 -0.453622 9.020475 -0.079824 -0.472674 15.502865 0.690590 0.827108 -2.571726 0.869698 5.729453 0.000002 -0.000000 -0.000000 0.000002 -0.000000 -0.000000 0.000002 -0.000000 -0.000000 0.000002 -0.000000 -0.000000 0.000002 -0.000000 -0.000000 0.000002 -0.000000 -0.000000 0.000002 -0.000000 -0.000000 0.000002 -0.000000 -0.000000 0.000002 -0.000000 -0.000000 0.685118 3.952922 -11.477669 74.095811 -65.119201 4.518431 0.000001 -18.201464 -0.000002 -25.061815 7.453126 -4.314706 21.734248 5.841505 -2.497392 -16.162755 18.936389 19.036142 0.000002 -0.000002 -0.000001 0.152615 1.444574 -12.061574 0.086637 1.091006 -9.079581 0.000001 0.000000 -0.000000 0.152213 1.442684 -12.045590 0.086936 1.092908 -9.095570 -0.000002 -0.000000 0.000001 0.152619 1.444564 -12.061572 0.086630 1.091017 -9.079568 0.000000 0.000001 0.000002 0.985185 5.412801 -11.600974 0.078381 -2.964038 -9.583902 -0.000000 -0.000001 -0.000001 -0.000000 0.000001 -0.000000 1.416782 0.355709 10.790259 8.863889 40.086571 57.830604 0.000002 26.055131 -0.000001 37.317039 -9.887071 12.959812 -0.389757 -6.638713 -15.665601 8.907268 -22.771338 0.157757 -0.000001 -0.000005 -0.000001 0.174548 -1.551259 12.839277 0.140304 -1.392640 11.506925 -0.000000 -0.000000 0.000002 0.174542 -1.551250 12.839281 0.140314 -1.392649 11.506921 -0.000000 -0.000001 0.000001 0.174544 -1.551238 12.839268 0.140303 -1.392665 11.506928 0.000001 -0.000000 -0.000000 0.174550 -1.551238 12.839274 0.140301 -1.392662 11.506928 -0.000000 0.000001 -0.000003 0.000002 -0.000000 0.000000 0.000001 -0.000000 -0.000000 0.000000 -0.000000 -0.000000 0.000001 -0.000000 0.000000 0.000001 -0.000000 0.000000 0.000001 -0.000000 -0.000000 0.000000 -0.000000 -0.000000 0.000001 -0.000000 0.000000 0.000001 -0.000000 0.000000 0.000001 -0.000000 -0.000000 0.000000 -0.000000 -0.000000 0.000000 0.000000 -0.000000 0.000000 0.000000 -0.000000 0.000000 0.000000 -0.000000 
